<svg xmlns="http://www.w3.org/2000/svg" viewBox="0 0 584 239" xmlns:v="https://vecta.io/nano"><g fill="#002e5b"><rect x="84.25" y="67.75" width="79" height="14.26" rx=".65"/><path d="M378.5 138.47l27.77 53.08c.11.22-.04.49-.28.49l-14.31.05c-.29.01-.58-.18-.73-.47l-27.72-52.71c-.22-.41-.63-.66-1.09-.66h-39.48c-.36 0-.66.3-.66.66v52.42a.92.92 0 0 1-.92.92h-12.42c-.36 0-.66-.3-.66-.66V68.62a.87.87 0 0 1 .87-.87q31.63 0 63.63 0 2.09 0 5.85.54 3.29.48 5.74 1.19 15.63 4.52 21.32 18.39 3.66 8.93 2.59 19.62-2.39 23.76-29.02 29.94c-.46.11-.7.62-.48 1.04zm10.68-20.4q4.15-5.51 4.89-11.69.79-6.47-1.3-12.13-2.5-6.79-9.84-10.1Q378.17 82 372.25 82q-24.87 0-49.75 0c-.28 0-.5.22-.5.5v40.98c0 .39.31.71.7.71q24.33.11 49.05.06 9.24-.01 16.14-4.92.74-.53 1.29-1.26zm92.38-35.36l-.06 108.76c0 .43-.34.77-.76.77l-12.68-.04c-.28 0-.5-.23-.5-.52l-.12-108.98c0-.39-.32-.7-.71-.7h-42.61a.87.87 0 0 1-.87-.87V68.44a.69.69 0 0 1 .69-.69h100.9c.5 0 .91.41.91.91v12.46c0 .45-.36.82-.81.82l-42.67.06c-.39 0-.71.32-.71.71z"/></g><path fill="#002f5f" d="M255.8 85.25q8.97 2.09 17.64 2.24a1.85 1.85 0 0 1 1.81 1.84q0 16.55 0 32.42 0 13.07-2.42 21.91-8.86 32.38-40.64 44.47-1.54.58-3.1.08-10.61-3.43-19.38-10.54-7.66-6.2-13.25-14.87-8.83-13.69-10.41-30.06-.3-3.08-.3-19.99 0-11.48 0-23.39c0-1.01.81-1.85 1.82-1.88q6.86-.2 14.18-1.48 16.15-2.82 27.82-13.95a1.34 1.34 0 0 1 1.86 0q10.35 9.94 24.37 13.2zm-.5 3.99q-12.92-3.03-24.18-12.05a.96.96 0 0 0-1.2-.01q-17.43 13.5-38.95 13.83c-.68.01-1.22.56-1.22 1.23q0 16.51-.24 32.26-.13 8.64 1.99 17 7.22 28.48 33.3 40.78 3.44 1.62 4.05 1.75 2.11.45 4.59-.59 17.71-7.46 27.75-22.5 5.64-8.46 8.22-19.03 1.59-6.51 1.75-17.97.22-15.49.08-31.8c-.01-.61-.5-1.11-1.11-1.12q-7.95-.16-14.83-1.78z"/><path d="M257.2 97.67q1.61.37 3.26.3 2.79-.1 3.23 2.49.05.26.07 3.58.14 17.96-.26 24.46-1.98 32.07-30.31 46.69-2.14 1.1-4.12.57-.61-.17-3.49-1.73-22.66-12.32-27.33-38.28-.3-1.66-.73-6.66-.27-3.17-.27-6.7 0-10.76 0-21.13 0-2.78 2.75-3.16 16.36-2.24 29.64-10.84c.49-.32 1.13-.32 1.63 0q11.01 7.04 25.93 10.41zm-29.89 44.34c-.42.48-1.16.51-1.61.06q-6.79-6.77-12.88-12.87-.81-.82-1.45-1.01-1.22-.36-1.85.76-.88 1.56.37 2.81l15.59 15.47c.64.63 1.68.59 2.28-.08q13.69-15.34 26.88-30.55.95-1.09 1-2.12.12-2.27-2.6-1.56c-.3.08-.58.26-.81.51l-24.92 28.58zm-96.5-17.86q11.47.15 23.02.1a.67.67 0 0 1 .67.66v12.65a.69.69 0 0 1-.69.69H99.18c-.38 0-.68.3-.68.68v52.65a.67.67 0 0 1-.67.67H85.17a.92.92 0 0 1-.92-.92v-66.39c0-.52.42-.93.94-.94q23.09-.14 45.62.15z" fill="#002e5b"/></svg>