<?xml version="1.0" encoding="UTF-8" standalone="no"?>
<!DOCTYPE svg PUBLIC "-//W3C//DTD SVG 1.1//EN" "http://www.w3.org/Graphics/SVG/1.1/DTD/svg11.dtd">
<svg xmlns="http://www.w3.org/2000/svg" version="1.1" viewBox="0 0 584 239">
<rect fill="#ffffff" x="84.46" y="67.76" width="78.78" height="14.24" rx="0.46"/>
<path fill="#ffffff" d="
  M 378.64 137.50
  C 378.35 137.55 378.19 137.88 378.33 138.15
  L 406.43 191.80
  C 406.54 192.00 406.39 192.25 406.16 192.25
  L 391.82 192.25
  C 391.38 192.25 390.98 192.00 390.77 191.61
  L 363.05 138.88
  C 362.91 138.60 362.63 138.43 362.32 138.43
  L 322.70 138.19
  C 322.41 138.18 322.18 138.41 322.18 138.68
  L 322.00 191.73
  C 322.00 192.02 321.77 192.25 321.49 192.25
  L 308.87 192.25
  C 308.39 192.25 308.00 191.86 308.00 191.38
  L 308.00 68.67
  C 308.00 68.16 308.41 67.75 308.92 67.75
  Q 339.50 67.75 370.00 67.73
  Q 376.59 67.73 382.99 69.30
  Q 402.13 74.01 407.00 92.75
  Q 409.65 102.94 406.70 113.87
  Q 403.49 125.81 392.87 132.07
  Q 386.08 136.07 378.64 137.50
  Z
  M 392.33 112.81
  Q 396.08 104.76 393.25 95.75
  Q 390.43 86.78 382.61 83.71
  Q 378.79 82.21 367.82 82.10
  Q 345.55 81.88 322.64 82.00
  C 322.28 82.01 322.00 82.29 322.00 82.65
  L 322.00 123.50
  C 322.00 123.95 322.36 124.31 322.81 124.31
  Q 347.72 124.20 373.00 124.25
  Q 379.34 124.26 384.61 121.27
  Q 389.77 118.34 392.33 112.81
  Z"
/>
<path fill="#ffffff" d="
  M 466.93 82.06
  L 423.92 82.00
  C 423.55 82.00 423.25 81.70 423.25 81.33
  L 423.25 68.41
  C 423.25 68.05 423.55 67.75 423.91 67.75
  L 525.01 67.75
  C 525.32 67.75 525.57 68.00 525.56 68.30
  L 525.45 81.44
  C 525.45 81.72 525.22 81.94 524.93 81.94
  L 481.94 82.00
  C 481.66 82.00 481.43 82.23 481.43 82.51
  L 481.50 191.43
  C 481.50 191.88 481.13 192.25 480.68 192.25
  L 468.14 192.25
  C 467.79 192.25 467.50 191.96 467.50 191.61
  L 467.44 82.57
  C 467.44 82.29 467.21 82.06 466.93 82.06
  Z"
/>
<path fill="#ffffff" d="
  M 206.69 174.81
  Q 185.67 154.74 185.72 125.25
  Q 185.75 107.50 185.75 89.45
  Q 185.75 87.52 187.68 87.49
  Q 198.76 87.36 209.72 83.90
  Q 219.49 80.83 227.27 74.25
  Q 227.31 74.21 228.73 72.74
  Q 230.49 70.91 232.25 72.72
  Q 233.72 74.23 233.77 74.27
  Q 242.42 81.51 252.75 84.50
  Q 260.96 86.87 270.59 87.39
  Q 270.65 87.39 272.53 87.35
  Q 275.58 87.27 275.36 90.37
  Q 275.25 92.03 275.25 92.14
  Q 275.25 107.20 275.25 122.25
  Q 275.25 132.01 273.90 138.73
  Q 266.56 175.19 232.03 188.15
  C 231.18 188.47 230.25 188.49 229.39 188.21
  Q 216.22 183.90 206.69 174.81
  Z
  M 255.31 89.19
  Q 242.21 86.16 231.21 77.20
  C 230.83 76.90 230.30 76.89 229.92 77.18
  Q 212.25 90.78 190.52 91.00
  C 190.09 91.01 189.75 91.36 189.75 91.79
  Q 189.75 109.87 189.66 127.25
  Q 189.63 134.50 191.43 141.52
  Q 199.56 173.17 230.03 184.33
  C 230.33 184.44 230.66 184.44 230.96 184.34
  Q 255.68 175.66 266.10 151.58
  Q 271.25 139.68 271.25 124.25
  Q 271.25 108.50 271.25 91.77
  C 271.25 91.38 270.94 91.07 270.55 91.06
  Q 263.02 90.97 255.31 89.19
  Z"
/>
<path fill="#ffffff" d="
  M 255.10 96.99
  Q 258.68 97.74 261.95 98.44
  C 262.85 98.63 263.50 99.43 263.50 100.35
  Q 263.50 110.10 263.50 119.45
  Q 263.50 132.28 262.15 138.44
  Q 256.76 163.09 232.70 175.44
  Q 230.88 176.37 228.98 175.60
  Q 216.19 170.37 207.71 158.34
  Q 198.09 144.70 197.50 126.25
  Q 197.07 113.00 197.50 99.88
  C 197.52 99.18 198.04 98.59 198.74 98.50
  Q 215.60 96.23 230.06 87.11
  C 230.33 86.94 230.67 86.94 230.94 87.11
  Q 242.18 94.28 255.10 96.99
  Z
  M 225.88 142.26
  L 212.49 128.87
  C 211.85 128.23 210.87 128.06 210.06 128.47
  Q 208.94 129.03 209.08 130.28
  Q 209.17 131.04 209.98 131.86
  Q 217.42 139.29 225.31 147.18
  C 226.02 147.89 227.18 147.86 227.84 147.11
  L 255.18 116.00
  C 255.64 115.49 255.82 114.77 255.66 114.09
  Q 255.21 112.16 253.47 112.77
  Q 252.68 113.05 251.78 114.06
  Q 239.39 127.93 227.06 142.21
  C 226.76 142.57 226.21 142.59 225.88 142.26
  Z"
/>
<path fill="#ffffff" d="
  M 118.07 124.06
  Q 136.03 124.30 153.65 124.25
  C 154.12 124.25 154.50 124.63 154.50 125.10
  L 154.50 137.40
  C 154.50 137.87 154.12 138.25 153.65 138.25
  L 98.95 138.25
  C 98.66 138.25 98.43 138.48 98.43 138.77
  L 98.50 191.27
  C 98.50 191.81 98.06 192.25 97.52 192.25
  L 85.02 192.25
  C 84.73 192.25 84.50 192.02 84.50 191.73
  L 84.50 124.64
  C 84.50 124.29 84.78 124.01 85.13 124.01
  Q 102.03 123.86 118.07 124.06
  Z"
/>
</svg>
